<svg width="50" height="50" viewBox="0 0 50 50" fill="none" xmlns="http://www.w3.org/2000/svg">
<path d="M15.8855 13.3333L21.7188 5.78126C22.1355 5.2257 22.6303 4.81771 23.2032 4.5573C23.7761 4.29688 24.3751 4.16667 25.0001 4.16667C25.6251 4.16667 26.224 4.29688 26.797 4.5573C27.3699 4.81771 27.8647 5.2257 28.2813 5.78126L34.1147 13.3333L42.9688 16.3021C43.8716 16.5799 44.5834 17.092 45.1042 17.8385C45.6251 18.5851 45.8855 19.4097 45.8855 20.3125C45.8855 20.7292 45.8247 21.1458 45.7032 21.5625C45.5817 21.9792 45.382 22.3785 45.1042 22.7604L39.3751 30.8854L39.5834 39.4271C39.6181 40.6424 39.2188 41.6667 38.3855 42.5C37.5522 43.3333 36.5799 43.75 35.4688 43.75C35.3994 43.75 35.0174 43.6979 34.323 43.5938L25.0001 40.9896L15.6772 43.5938C15.5036 43.6632 15.3126 43.7066 15.1042 43.724C14.8959 43.7413 14.7049 43.75 14.5313 43.75C13.4202 43.75 12.448 43.3333 11.6147 42.5C10.7813 41.6667 10.382 40.6424 10.4167 39.4271L10.6251 30.8333L4.948 22.7604C4.67022 22.3785 4.47057 21.9792 4.34904 21.5625C4.22751 21.1458 4.16675 20.7292 4.16675 20.3125C4.16675 19.4444 4.41848 18.6372 4.92196 17.8906C5.42543 17.1441 6.12855 16.6146 7.03133 16.3021L15.8855 13.3333ZM18.4376 16.9271L8.33341 20.2604L14.7917 29.5833L14.5834 39.5313L25.0001 36.6667L35.4167 39.5833L35.2084 29.5833L41.6667 20.3646L31.5626 16.9271L25.0001 8.33334L18.4376 16.9271Z" fill="#FCD332"/>
</svg>
