<svg width="50" height="50" viewBox="0 0 50 50" fill="none" xmlns="http://www.w3.org/2000/svg">
<path d="M14.0449 11.5789L21.0362 2.03947C21.5356 1.33772 22.1286 0.822368 22.8152 0.493421C23.5019 0.164474 24.2197 0 24.9688 0C25.7179 0 26.4357 0.164474 27.1223 0.493421C27.809 0.822368 28.402 1.33772 28.9014 2.03947L35.8926 11.5789L46.5044 15.3289C47.5863 15.6798 48.4394 16.3268 49.0637 17.2697C49.6879 18.2127 50 19.2544 50 20.3947C50 20.9211 49.9272 21.4474 49.7815 21.9737C49.6359 22.5 49.3966 23.0044 49.0637 23.4868L42.1973 33.75L42.4469 44.5395C42.4886 46.0746 42.01 47.3684 41.0112 48.4211C40.0125 49.4737 38.8473 50 37.5156 50C37.4324 50 36.9746 49.9342 36.1423 49.8026L24.9688 46.5132L13.7953 49.8026C13.5872 49.8904 13.3583 49.9452 13.1086 49.9671C12.8589 49.989 12.63 50 12.422 50C11.0903 50 9.92509 49.4737 8.92634 48.4211C7.92759 47.3684 7.44902 46.0746 7.49064 44.5395L7.74032 33.6842L0.93633 23.4868C0.603412 23.0044 0.364128 22.5 0.218477 21.9737C0.0728256 21.4474 0 20.9211 0 20.3947C0 19.2982 0.301706 18.2785 0.905119 17.3355C1.50853 16.3925 2.35123 15.7237 3.43321 15.3289L14.0449 11.5789Z" fill="#FCD332"/>
</svg>
