<svg width="50" height="50" viewBox="0 0 50 50" fill="none" xmlns="http://www.w3.org/2000/svg">
<path d="M24.9999 25C26.1458 25 27.1267 24.592 27.9426 23.776C28.7586 22.9601 29.1666 21.9792 29.1666 20.8333C29.1666 19.6875 28.7586 18.7066 27.9426 17.8906C27.1267 17.0747 26.1458 16.6667 24.9999 16.6667C23.8541 16.6667 22.8732 17.0747 22.0572 17.8906C21.2412 18.7066 20.8333 19.6875 20.8333 20.8333C20.8333 21.9792 21.2412 22.9601 22.0572 23.776C22.8732 24.592 23.8541 25 24.9999 25ZM24.9999 40.3125C29.236 36.4236 32.3784 32.8906 34.427 29.7135C36.4756 26.5365 37.4999 23.7153 37.4999 21.25C37.4999 17.4653 36.2933 14.3663 33.8801 11.9531C31.4669 9.53994 28.5069 8.33334 24.9999 8.33334C21.493 8.33334 18.5329 9.53994 16.1197 11.9531C13.7065 14.3663 12.4999 17.4653 12.4999 21.25C12.4999 23.7153 13.5242 26.5365 15.5728 29.7135C17.6214 32.8906 20.7638 36.4236 24.9999 40.3125ZM24.9999 45.8333C19.4096 41.0764 15.2343 36.658 12.4739 32.5781C9.71346 28.4983 8.33325 24.7222 8.33325 21.25C8.33325 16.0417 10.0086 11.8924 13.3593 8.80209C16.71 5.71181 20.5902 4.16667 24.9999 4.16667C29.4096 4.16667 33.2898 5.71181 36.6405 8.80209C39.9912 11.8924 41.6666 16.0417 41.6666 21.25C41.6666 24.7222 40.2864 28.4983 37.526 32.5781C34.7655 36.658 30.5902 41.0764 24.9999 45.8333Z" fill="black"/>
</svg>
