<svg width="50" height="50" viewBox="0 0 50 50" fill="none" xmlns="http://www.w3.org/2000/svg">
<path d="M24.9999 25C22.7083 25 20.7464 24.184 19.1145 22.5521C17.4826 20.9201 16.6666 18.9583 16.6666 16.6667C16.6666 14.375 17.4826 12.4132 19.1145 10.7812C20.7464 9.1493 22.7083 8.33333 24.9999 8.33333C27.2916 8.33333 29.2534 9.1493 30.8853 10.7812C32.5173 12.4132 33.3333 14.375 33.3333 16.6667C33.3333 18.9583 32.5173 20.9201 30.8853 22.5521C29.2534 24.184 27.2916 25 24.9999 25ZM8.33325 41.6667V35.8333C8.33325 34.6528 8.63707 33.5677 9.24471 32.5781C9.85235 31.5885 10.6596 30.8333 11.6666 30.3125C13.8194 29.2361 16.0069 28.4288 18.2291 27.8906C20.4513 27.3524 22.7083 27.0833 24.9999 27.0833C27.2916 27.0833 29.5485 27.3524 31.7708 27.8906C33.993 28.4288 36.1805 29.2361 38.3333 30.3125C39.3402 30.8333 40.1475 31.5885 40.7551 32.5781C41.3628 33.5677 41.6666 34.6528 41.6666 35.8333V41.6667H8.33325ZM12.4999 37.5H37.4999V35.8333C37.4999 35.4514 37.4044 35.1042 37.2135 34.7917C37.0225 34.4792 36.7708 34.2361 36.4583 34.0625C34.5833 33.125 32.6909 32.4219 30.7812 31.9531C28.8714 31.4844 26.9444 31.25 24.9999 31.25C23.0555 31.25 21.1284 31.4844 19.2187 31.9531C17.3089 32.4219 15.4166 33.125 13.5416 34.0625C13.2291 34.2361 12.9773 34.4792 12.7864 34.7917C12.5954 35.1042 12.4999 35.4514 12.4999 35.8333V37.5ZM24.9999 20.8333C26.1458 20.8333 27.1267 20.4253 27.9426 19.6094C28.7586 18.7934 29.1666 17.8125 29.1666 16.6667C29.1666 15.5208 28.7586 14.5399 27.9426 13.724C27.1267 12.908 26.1458 12.5 24.9999 12.5C23.8541 12.5 22.8732 12.908 22.0572 13.724C21.2412 14.5399 20.8333 15.5208 20.8333 16.6667C20.8333 17.8125 21.2412 18.7934 22.0572 19.6094C22.8732 20.4253 23.8541 20.8333 24.9999 20.8333Z" fill="black"/>
</svg>
